# xmcd CD database file
#
# Track frame offsets:
#	150
#	18941
#	39303
#	53890
#	77540
#	101402
#	129962
#	150685
#	175575
#	193927
#	214483
#	231156
#	248303
#	271890
#	289594
#	312274
#
# Disc length: 4387 seconds
#
# Revision: 0
# Processed by: cddbd v1.5PL3 Copyright (c) Steve Scherf et al.
# Submitted via: CDex 1.51
#
DISCID=ca112110
DTITLE=Joe Arroyo - Lo salsero de
DYEAR=1900
DGENRE=Salsa
TTITLE0=Con gusto y gana
TTITLE1=Yamulemau
TTITLE2=Ban Ban
TTITLE3=En barranquilla me quedo
TTITLE4=La vuelta
TTITLE5=Rebelion
TTITLE6=La guerra de los callados
TTITLE7=Mary
TTITLE8=Matiagua
TTITLE9=Pa`l bailador
TTITLE10=Fuego en mi mente
TTITLE11=Somos seres
TTITLE12=Carnaval
TTITLE13=Acabando conmigo
TTITLE14=Por ti no moriré
TTITLE15=Maria Isabel
EXTD=
EXTT0=
EXTT1=
EXTT2=
EXTT3=
EXTT4=
EXTT5=
EXTT6=
EXTT7=
EXTT8=
EXTT9=
EXTT10=
EXTT11=
EXTT12=
EXTT13=
EXTT14=
EXTT15=
PLAYORDER=
